<svg xmlns="http://www.w3.org/2000/svg" width="32" height="32" id="hand"><path style="line-height:normal;text-indent:0;text-align:start;text-decoration-line:none;text-decoration-style:solid;text-decoration-color:#000;text-transform:none;block-progression:tb;white-space:normal;isolation:auto;mix-blend-mode:normal;solid-color:#000;solid-opacity:1" d="M18.842 4.504c-.983 0-1.967.372-2.717 1.119a3.823 3.823 0 0 0 0 5.416.5.5 0 0 0 .014.012l5.507 5.129a.5.5 0 0 0 .34.134h.01a.5.5 0 0 0 .34-.134l5.51-5.13c1.563-1.455 1.51-3.934.011-5.427a.5.5 0 0 0-.164-.11h-.002c-1.507-1.35-3.815-1.335-5.265.11l-.436.434-.433-.434a3.833 3.833 0 0 0-2.715-1.12zm0 .99v.002c.725 0 1.45.279 2.01.836l.787.783a.5.5 0 0 0 .705 0l.787-.783a2.834 2.834 0 0 1 4.02 0 .5.5 0 0 0 .003 0c1.117 1.114 1.15 2.924.01 3.986l-5.172 4.815-5.16-4.803a2.803 2.803 0 0 1 0-4 2.838 2.838 0 0 1 2.01-.836zM1.504 13.756a.5.5 0 0 0-.5.5v10.183a.5.5 0 0 0 .5.5h5.471a.5.5 0 0 0 .5-.5v-.736l9.34 3.164a.5.5 0 0 0 .039.01c1.087.276 2.342.112 3.29-.525l9.672-5.256a.5.5 0 0 0 .008 0l.237-.135a1.835 1.835 0 0 0 .793-2.303c-.307-.725-.91-1.058-1.381-1.127v-.004a2.005 2.005 0 0 0-.858.065.5.5 0 0 0-.049.021l-5.332 2.473c.007-.068.022-.132.022-.201 0-1.124-.93-2.037-2.059-2.037h-4.44c-.018-.034-.04-.082-.058-.114a5.014 5.014 0 0 0-.887-1.164 5.193 5.193 0 0 0-3.642-1.474H7.475v-.84a.5.5 0 0 0-.5-.5H1.504zm.5 1h4.471v9.183H2.004v-9.183zm5.47 1.34h4.696a4.181 4.181 0 0 1 3.447 1.789c.074.108.144.219.207.334.079.141.132.228.174.326l.129.303h5.07c.6 0 1.059.458 1.059 1.037 0 .434-.259.797-.64.953l-.007.002c-.126.05-.264.08-.412.08h-6.955v1h6.955c.21 0 .407-.042.598-.1a.5.5 0 0 0 .172-.043l6.978-3.236c.009 0 .174-.054.383-.023.215.03.42.09.606.527a.817.817 0 0 1-.366 1.043l-.234.13-9.707 5.278a.5.5 0 0 0-.041.025c-.66.444-1.684.59-2.484.387H17.1l-9.625-3.26v-6.552z" color="#000" enable-background="accumulate" font-family="sans-serif" font-weight="400" overflow="visible"></path></svg>